<mxfile host="app.diagrams.net" modified="2023-09-16T06:55:08.410Z" agent="Mozilla/5.0 (Macintosh; Intel Mac OS X 10_15_7) AppleWebKit/537.36 (KHTML, like Gecko) Chrome/116.0.0.0 Safari/537.36" version="21.7.5" etag="ZFawKvK9WFMYjeLyLaEA" type="github">
  <diagram name="Страница — 1" id="jtLSriIxMIc0uCYnqBx7">
    <mxGraphModel>
      <root>
        <mxCell id="0" />
        <mxCell id="1" parent="0" />
      </root>
    </mxGraphModel>
  </diagram>
</mxfile>
